<svg width="1000" height="800" xmlns="http://www.w3.org/2000/svg" xmlns:xlink="http://www.w3.org/1999/xlink" version="1.1" baseProfile="full" viewBox="0 0 1000 800">
<rect width="1000" height="800" x="0" y="0" id="0" fill="none"></rect>
<path d="M500 340L457.6 357.6L440 400L457.6 442.4L500 460L542.4 442.4L560 400L542.4 357.6L500 340L500 400ZM500 220L372.7 272.7L320 400L372.7 527.3L500 580L627.3 527.3L680 400L627.3 272.7L500 220L500 280L584.9 315.1L620 400L584.9 484.9L500 520L415.1 484.9L380 400L415.1 315.1L500 280ZM500 100L287.9 187.9L200 400L287.9 612.1L500 700L712.1 612.1L800 400L712.1 187.9L500 100L500 160L669.7 230.3L740 400L669.7 569.7L500 640L330.3 569.7L260 400L330.3 230.3L500 160Z" fill="rgb(250,250,250)" fill-opacity="0.2"></path>
<path d="M500 280L415.1 315.1L380 400L415.1 484.9L500 520L584.9 484.9L620 400L584.9 315.1L500 280L500 340L542.4 357.6L560 400L542.4 442.4L500 460L457.6 442.4L440 400L457.6 357.6L500 340ZM500 160L330.3 230.3L260 400L330.3 569.7L500 640L669.7 569.7L740 400L669.7 230.3L500 160L500 220L627.3 272.7L680 400L627.3 527.3L500 580L372.7 527.3L320 400L372.7 272.7L500 220Z" fill="rgb(210,219,238)" fill-opacity="0.2"></path>
<path d="M500 400M500 340L457.6 357.6L440 400L457.6 442.4L500 460L542.4 442.4L560 400L542.4 357.6L500 340M500 280L415.1 315.1L380 400L415.1 484.9L500 520L584.9 484.9L620 400L584.9 315.1L500 280M500 220L372.7 272.7L320 400L372.7 527.3L500 580L627.3 527.3L680 400L627.3 272.7L500 220M500 160L330.3 230.3L260 400L330.3 569.7L500 640L669.7 569.7L740 400L669.7 230.3L500 160M500 100L287.9 187.9L200 400L287.9 612.1L500 700L712.1 612.1L800 400L712.1 187.9L500 100" fill="none" stroke="#E0E6F1"></path>
<path d="M500.5 400L500.5 100" fill="none" stroke="#bbb" stroke-linecap="round"></path>
<text dominant-baseline="central" text-anchor="middle" style="font-size:12px;font-family:sans-serif;" y="-6" transform="translate(500 85)" fill="#bbb">Python</text>
<path d="M500 400L287.9 187.9" fill="none" stroke="#bbb" stroke-linecap="round"></path>
<text dominant-baseline="central" text-anchor="end" style="font-size:12px;font-family:sans-serif;" transform="translate(277.2614 177.2614)" fill="#bbb">Rust</text>
<path d="M500 400.5L200 400.5" fill="none" stroke="#bbb" stroke-linecap="round"></path>
<text dominant-baseline="central" text-anchor="end" style="font-size:12px;font-family:sans-serif;" transform="translate(185 400)" fill="#bbb">SQLPL</text>
<path d="M500 400L287.9 612.1" fill="none" stroke="#bbb" stroke-linecap="round"></path>
<text dominant-baseline="central" text-anchor="end" style="font-size:12px;font-family:sans-serif;" transform="translate(277.2614 622.7386)" fill="#bbb">JavaScript</text>
<path d="M500.5 400L500.5 700" fill="none" stroke="#bbb" stroke-linecap="round"></path>
<text dominant-baseline="central" text-anchor="middle" style="font-size:12px;font-family:sans-serif;" y="6" transform="translate(500 715)" fill="#bbb">Kotlin</text>
<path d="M500 400L712.1 612.1" fill="none" stroke="#bbb" stroke-linecap="round"></path>
<text dominant-baseline="central" text-anchor="start" style="font-size:12px;font-family:sans-serif;" transform="translate(722.7386 622.7386)" fill="#bbb">Nix</text>
<path d="M500 400.5L800 400.5" fill="none" stroke="#bbb" stroke-linecap="round"></path>
<text dominant-baseline="central" text-anchor="start" style="font-size:12px;font-family:sans-serif;" transform="translate(815 400)" fill="#bbb">Elm</text>
<path d="M500 400L712.1 187.9" fill="none" stroke="#bbb" stroke-linecap="round"></path>
<text dominant-baseline="central" text-anchor="start" style="font-size:12px;font-family:sans-serif;" transform="translate(722.7386 177.2614)" fill="#bbb">C++</text>
<polyline points="500 100 408.5 308.5 453.7 400 469 431 500 435.2 514.2 414.2 514.4 400 503.8 396.2 500 100" fill="none" stroke="#5470c6" stroke-width="2" stroke-linejoin="round"></polyline>
<polygon points="500 100 408.5 308.5 453.7 400 469 431 500 435.2 514.2 414.2 514.4 400 503.8 396.2 500 100" fill="#5470c6" fill-opacity="0.7"></polygon>
<path d="M1 0A1 1 0 1 1 1 -0.1A1 1 0 0 1 1 0" transform="matrix(4,0,0,4,500,100)" fill="#5470c6"></path>
<path d="M1 0A1 1 0 1 1 1 -0.1A1 1 0 0 1 1 0" transform="matrix(4,0,0,4,408.4746,308.4746)" fill="#5470c6"></path>
<path d="M1 0A1 1 0 1 1 1 -0.1A1 1 0 0 1 1 0" transform="matrix(4,0,0,4,453.6662,400)" fill="#5470c6"></path>
<path d="M1 0A1 1 0 1 1 1 -0.1A1 1 0 0 1 1 0" transform="matrix(4,0,0,4,468.9734,431.0266)" fill="#5470c6"></path>
<path d="M1 0A1 1 0 1 1 1 -0.1A1 1 0 0 1 1 0" transform="matrix(4,0,0,4,500,435.1746)" fill="#5470c6"></path>
<path d="M1 0A1 1 0 1 1 1 -0.1A1 1 0 0 1 1 0" transform="matrix(4,0,0,4,514.1815,414.1815)" fill="#5470c6"></path>
<path d="M1 0A1 1 0 1 1 1 -0.1A1 1 0 0 1 1 0" transform="matrix(4,0,0,4,514.399,400)" fill="#5470c6"></path>
<path d="M1 0A1 1 0 1 1 1 -0.1A1 1 0 0 1 1 0" transform="matrix(4,0,0,4,503.7636,396.2364)" fill="#5470c6"></path>
</svg>