<svg width="1000" height="800" xmlns="http://www.w3.org/2000/svg" xmlns:xlink="http://www.w3.org/1999/xlink" version="1.1" baseProfile="full" viewBox="0 0 1000 800">
<rect width="1000" height="800" x="0" y="0" id="0" fill="none"></rect>
<path d="M500 340L500 460L500 340L500 400ZM500 220L500 580L500 220L500 280L500 520L500 280ZM500 100L500 700L500 100L500 160L500 640L500 160Z" fill="rgb(250,250,250)" fill-opacity="0.2"></path>
<path d="M500 280L500 520L500 280L500 340L500 460L500 340ZM500 160L500 640L500 160L500 220L500 580L500 220Z" fill="rgb(210,219,238)" fill-opacity="0.2"></path>
<path d="M500 400M500 340L500 460L500 340M500 280L500 520L500 280M500 220L500 580L500 220M500 160L500 640L500 160M500 100L500 700L500 100" fill="none" stroke="#E0E6F1"></path>
<path d="M500.5 400L500.5 100" fill="none" stroke="#bbb" stroke-linecap="round"></path>
<text dominant-baseline="central" text-anchor="middle" style="font-size:12px;font-family:sans-serif;" y="-6" transform="translate(500 85)" fill="#bbb">Rust</text>
<path d="M500.5 400L500.5 700" fill="none" stroke="#bbb" stroke-linecap="round"></path>
<text dominant-baseline="central" text-anchor="middle" style="font-size:12px;font-family:sans-serif;" y="6" transform="translate(500 715)" fill="#bbb">Nix</text>
<polyline points="500 100 500 443 500 100" fill="none" stroke="#5470c6" stroke-width="2" stroke-linejoin="round"></polyline>
<polygon points="500 100 500 443 500 100" fill="#5470c6" fill-opacity="0.7"></polygon>
<path d="M1 0A1 1 0 1 1 1 -0.1A1 1 0 0 1 1 0" transform="matrix(4,0,0,4,500,100)" fill="#5470c6"></path>
<path d="M1 0A1 1 0 1 1 1 -0.1A1 1 0 0 1 1 0" transform="matrix(4,0,0,4,500,443.0108)" fill="#5470c6"></path>
</svg>